# xmcd
#
# Track frame offsets:
#	182
#	15632
#	27955
#	57447
#	76022
#	100040
#	128532
#	150885
#	168975
#	188542
#	213510
#	231205
#	245862
#	268987
#	282902
#
# Disc length: 3958 seconds
#
# Revision: 6
# Processed by: cddbd v1.5.2PL0 Copyright (c) Steve Scherf et al.
# Submitted via: audiograbber 1.83.01
#
DISCID=be0f740f
DTITLE=Jimi Hendrix - South Saturn Delta
DYEAR=1997
DGENRE=Hard Rock
TTITLE0=Look Over Yonder (TTG Studios, Hollywood CA - 22 Oct 1968)
TTITLE1=Little Wing (Olympic Studios, London - 14 Oct 1967)
TTITLE2=Here He Comes (Lover Man) (TTG Studios, Hollywood CA - 29 Oct 1968)
TTITLE3=South Saturn Delta (Record Plant, NY - 2 May and 14 June 1968)
TTITLE4=Power of Soul (Record Plant, NY - 21 Jan and 3 Feb 1970 and Electric Lady
TTITLE4=, NY - 22 Aug 1970)
TTITLE5=Message To the Universe (Message To Love) (Hit Factory, NY - 28 Aug 196
TTITLE5=9)
TTITLE6=Tax Free (Olympic Studios, London - 26 and 28 Jan 1968 and Record Plant, 
TTITLE6=NY - 1 May 1968)
TTITLE7=All Along the Watchtower (Olympic Studios, London - 21 and 26 Jan 1968)
TTITLE8=The Stars That Play With Laughing Sam's Dice (Mayfair Studios, NY - 19 
TTITLE8=July 1967)
TTITLE9=Midnight (Olmstead Studios, NY - 1 and 3 April 1969)
TTITLE10=Sweet Angel (Angel) (Olympic Studios, London - 13 Nov 1967)
TTITLE11=Bleeding Heart (Record Plant, NY - 24 Mar 1970 and Electric Lady, NY -
TTITLE11=June 1970)
TTITLE12=Pali Gap (Electric Lady, NY - 1 July 1970)
TTITLE13=Drifter's Escape (Electric Lady, NY - 17 June and 19 and 20 July and 22 
TTITLE13=Aug 1970)
TTITLE14=Midnight Lightning (Record Plant, NY - 23 Mar 1970)
EXTD=
EXTT0=
EXTT1=
EXTT2=
EXTT3=
EXTT4=
EXTT5=
EXTT6=
EXTT7=
EXTT8=
EXTT9=
EXTT10=
EXTT11=
EXTT12=
EXTT13=
EXTT14=
PLAYORDER=
